<svg id="svg" version="1.1" xmlns="http://www.w3.org/2000/svg" xmlns:xlink="http://www.w3.org/1999/xlink" width="400" height="400" viewBox="0, 0, 400,400"><g id="svgg"><path id="path0" d="M185.600 44.679 C 185.050 44.777,184.410 45.101,184.177 45.400 C 183.860 45.807,182.147 45.975,177.344 46.071 C 171.083 46.197,170.902 46.225,169.516 47.283 C 168.735 47.879,167.603 48.456,166.999 48.566 C 166.396 48.675,165.609 49.019,165.251 49.329 C 164.893 49.639,164.136 50.002,163.569 50.137 C 163.002 50.271,162.047 50.835,161.448 51.390 C 160.540 52.232,159.967 52.400,158.005 52.400 C 155.163 52.400,153.594 52.937,153.315 54.005 C 153.159 54.601,152.768 54.800,151.753 54.800 C 150.933 54.800,150.085 55.115,149.600 55.600 C 149.160 56.040,148.272 56.400,147.626 56.400 C 145.897 56.400,144.504 57.043,144.207 57.977 C 143.998 58.637,143.611 58.800,142.252 58.800 C 141.004 58.800,140.134 59.112,138.951 59.982 C 138.067 60.631,136.727 61.268,135.972 61.397 C 135.217 61.525,134.400 61.894,134.156 62.215 C 133.912 62.537,133.102 62.807,132.356 62.816 C 131.448 62.827,130.542 63.224,129.615 64.016 C 128.853 64.667,127.907 65.200,127.511 65.200 C 127.116 65.200,126.484 65.560,126.107 66.000 C 125.719 66.453,124.927 66.800,124.280 66.800 C 123.545 66.800,122.711 67.227,121.938 68.000 C 121.278 68.660,120.311 69.200,119.789 69.200 C 119.267 69.200,118.040 69.740,117.062 70.400 C 116.084 71.060,114.899 71.600,114.429 71.600 C 113.959 71.600,113.473 71.865,113.349 72.189 C 113.224 72.513,112.465 72.892,111.661 73.030 C 110.771 73.184,109.809 73.729,109.200 74.426 C 108.650 75.056,107.721 75.652,107.136 75.752 C 105.716 75.995,104.000 77.153,104.000 77.870 C 104.000 78.187,103.808 78.328,103.573 78.183 C 103.338 78.038,103.047 78.297,102.926 78.760 C 102.760 79.395,102.391 79.600,101.415 79.600 C 100.141 79.600,98.800 80.590,98.800 81.531 C 98.800 81.789,98.344 82.000,97.787 82.000 C 97.231 82.000,96.679 82.250,96.562 82.555 C 96.445 82.860,95.787 83.223,95.101 83.360 C 93.698 83.640,92.400 84.651,92.400 85.462 C 92.400 85.793,91.939 86.000,91.200 86.000 C 90.540 86.000,90.000 86.167,90.000 86.371 C 90.000 86.576,89.100 87.326,88.000 88.039 C 86.900 88.752,86.000 89.484,86.000 89.667 C 86.000 89.850,85.590 90.000,85.089 90.000 C 84.588 90.000,83.731 90.510,83.184 91.133 C 82.637 91.756,81.697 92.389,81.095 92.540 C 80.493 92.692,80.000 92.977,80.000 93.175 C 80.000 93.373,79.370 93.924,78.600 94.400 C 77.830 94.876,77.200 95.521,77.200 95.833 C 77.200 96.214,76.742 96.400,75.800 96.400 C 74.875 96.400,74.400 96.588,74.400 96.953 C 74.400 97.857,72.916 97.991,72.161 97.157 C 71.784 96.740,71.040 96.400,70.507 96.400 C 69.964 96.400,69.011 95.873,68.338 95.200 C 66.607 93.468,61.600 93.899,61.600 95.780 C 61.600 96.121,61.452 96.400,61.271 96.400 C 60.315 96.400,58.800 99.743,58.800 101.855 C 58.800 103.740,58.650 104.167,57.701 104.983 C 56.590 105.940,56.546 106.152,56.418 111.300 C 56.408 111.685,56.149 112.000,55.843 112.000 C 55.536 112.000,55.182 112.270,55.055 112.600 C 54.929 112.930,54.504 113.200,54.111 113.200 C 53.719 113.200,52.888 113.740,52.265 114.400 C 51.642 115.060,50.877 115.600,50.566 115.600 C 50.255 115.600,50.000 115.789,50.000 116.020 C 50.000 116.252,49.415 116.690,48.700 116.995 C 47.495 117.509,46.417 118.581,43.767 121.900 C 43.196 122.615,42.416 123.200,42.034 123.200 C 41.372 123.200,39.600 124.748,39.600 125.326 C 39.600 125.712,38.068 127.200,37.670 127.200 C 36.952 127.200,35.600 129.112,35.600 130.126 C 35.600 130.814,35.384 131.200,35.000 131.200 C 34.670 131.200,34.400 131.394,34.400 131.632 C 34.400 131.870,33.760 133.028,32.979 134.206 C 31.076 137.073,30.965 141.917,32.741 144.600 C 34.569 147.362,34.952 147.647,36.703 147.544 C 38.424 147.442,40.013 148.222,41.400 149.848 C 41.840 150.364,43.871 151.599,45.912 152.592 C 47.954 153.586,49.731 154.676,49.861 155.014 C 50.426 156.488,53.557 157.204,56.203 156.466 C 59.760 155.472,60.311 156.432,60.649 164.200 L 60.893 169.800 59.790 171.400 L 58.686 173.000 58.915 179.473 C 59.040 183.034,59.344 186.321,59.588 186.778 C 60.964 189.349,60.950 208.078,59.571 208.815 C 59.130 209.052,58.800 209.650,58.800 210.214 C 58.800 210.950,58.586 211.200,57.956 211.200 C 57.485 211.200,56.327 211.996,55.337 213.000 C 54.361 213.990,53.423 214.800,53.251 214.800 C 52.777 214.800,51.200 216.588,51.200 217.126 C 51.200 217.387,50.868 217.600,50.462 217.600 C 49.660 217.600,48.249 218.916,48.636 219.303 C 48.767 219.434,48.339 219.818,47.686 220.156 C 46.279 220.883,46.000 221.484,46.000 223.790 C 46.000 224.954,45.805 225.589,45.400 225.745 C 44.564 226.065,44.564 229.535,45.400 229.855 C 45.730 229.982,46.000 230.543,46.000 231.102 C 46.000 233.114,48.229 234.619,50.998 234.477 C 53.376 234.355,53.409 234.369,54.825 236.029 C 56.191 237.631,56.377 237.716,59.099 237.965 C 63.644 238.382,64.306 239.476,64.444 246.800 C 64.527 251.193,64.266 252.717,63.313 253.414 C 62.565 253.961,62.706 280.721,63.461 281.639 C 64.904 283.393,64.041 296.400,62.482 296.400 C 62.194 296.400,61.770 296.940,61.540 297.600 C 61.310 298.260,60.882 298.800,60.589 298.800 C 59.636 298.800,58.800 300.027,58.800 301.429 C 58.800 302.725,58.725 302.800,57.423 302.800 C 55.159 302.800,54.800 303.737,54.800 309.645 C 54.800 316.410,55.481 317.164,61.611 317.190 C 64.116 317.201,64.737 317.535,68.070 320.667 C 70.239 322.705,70.438 322.800,72.516 322.800 C 75.250 322.800,76.609 323.763,77.204 326.121 C 78.851 332.643,83.263 336.280,91.430 337.846 C 92.497 338.051,92.990 337.799,95.149 335.941 C 100.143 331.646,100.808 331.200,102.215 331.200 C 104.066 331.200,105.502 329.610,105.810 327.217 C 106.292 323.483,108.525 312.589,108.946 311.914 C 109.521 310.994,113.325 308.994,115.600 308.416 C 119.733 307.365,122.224 306.008,123.736 303.982 C 124.790 302.570,125.605 301.919,126.695 301.620 C 127.523 301.393,129.680 300.170,131.490 298.903 C 137.179 294.920,141.562 292.324,143.311 291.901 C 144.240 291.676,145.630 290.915,146.400 290.209 C 148.358 288.414,149.915 287.396,153.145 285.800 C 154.683 285.040,156.060 284.227,156.205 283.993 C 156.700 283.190,159.401 281.722,160.891 281.445 C 162.628 281.121,168.149 277.555,169.057 276.170 C 169.399 275.648,170.696 274.731,171.939 274.133 C 173.183 273.535,174.650 272.713,175.200 272.307 C 177.902 270.312,180.839 268.628,183.107 267.775 C 184.486 267.255,187.816 265.499,190.507 263.871 C 193.198 262.244,196.750 260.225,198.400 259.385 C 200.050 258.545,202.480 257.043,203.800 256.048 C 206.396 254.090,212.967 250.338,217.300 248.339 C 219.771 247.198,220.002 246.987,220.028 245.846 C 220.051 244.834,220.114 244.748,220.365 245.389 C 220.584 245.950,220.738 245.487,220.898 243.789 C 221.021 242.475,221.409 240.860,221.759 240.200 C 223.206 237.471,222.525 234.588,219.741 231.645 C 219.268 231.145,218.763 229.945,218.618 228.978 C 218.472 228.010,218.167 227.103,217.939 226.962 C 217.687 226.807,217.626 226.023,217.783 224.974 C 218.201 222.184,217.339 221.620,212.500 221.518 C 210.355 221.473,207.250 221.392,205.600 221.338 C 201.491 221.202,198.512 221.545,197.824 222.233 C 197.507 222.550,196.427 222.921,195.424 223.059 C 194.375 223.202,193.193 223.685,192.644 224.194 C 191.990 224.800,190.973 225.153,189.413 225.314 C 187.561 225.505,186.916 225.778,185.964 226.774 C 185.003 227.780,184.476 228.000,183.025 228.000 C 182.053 228.000,181.017 228.241,180.722 228.535 C 180.428 228.829,179.416 229.173,178.472 229.300 C 177.344 229.451,176.428 229.884,175.798 230.565 C 175.270 231.134,174.406 231.600,173.879 231.600 C 172.343 231.600,170.369 232.422,170.665 232.939 C 170.810 233.193,170.779 233.264,170.596 233.099 C 170.413 232.933,169.889 233.033,169.432 233.321 C 168.974 233.610,167.835 234.067,166.900 234.339 C 165.965 234.610,165.200 235.005,165.200 235.216 C 165.200 235.427,164.586 235.600,163.836 235.600 C 162.823 235.600,162.221 235.897,161.500 236.754 C 160.965 237.390,159.916 238.040,159.164 238.202 C 158.414 238.363,157.530 238.739,157.200 239.036 C 156.870 239.334,156.009 240.122,155.286 240.789 C 154.564 241.455,153.890 242.000,153.790 242.000 C 153.689 242.000,152.782 242.630,151.773 243.400 C 150.764 244.170,149.677 244.800,149.357 244.800 C 149.037 244.800,148.671 245.070,148.545 245.400 C 148.418 245.730,147.828 246.000,147.233 246.000 C 146.587 246.000,145.679 246.458,144.976 247.138 C 144.329 247.764,143.301 248.398,142.690 248.548 C 142.080 248.698,140.761 249.446,139.760 250.210 C 138.758 250.975,137.683 251.600,137.369 251.600 C 137.056 251.600,136.800 251.780,136.800 252.000 C 136.800 252.220,136.349 252.400,135.797 252.400 C 135.217 252.400,134.417 252.836,133.897 253.435 C 133.404 254.004,132.460 254.729,131.800 255.046 C 128.846 256.463,127.200 257.608,127.200 258.246 C 127.200 258.503,126.930 258.818,126.600 258.945 C 126.270 259.071,126.000 259.544,126.000 259.996 C 126.000 260.508,125.586 260.999,124.900 261.300 C 124.295 261.566,123.656 262.012,123.480 262.292 C 123.275 262.618,122.227 262.800,120.549 262.800 C 118.145 262.800,117.838 262.901,116.669 264.077 C 115.971 264.780,115.058 265.382,114.640 265.415 C 114.222 265.448,113.663 265.773,113.396 266.138 C 113.130 266.502,112.696 266.800,112.432 266.800 C 112.169 266.800,112.055 266.965,112.179 267.166 C 112.303 267.367,112.261 267.592,112.085 267.666 C 111.910 267.740,111.375 268.441,110.897 269.225 C 108.773 272.706,107.244 272.204,107.161 268.000 C 106.967 258.049,107.018 248.317,107.285 244.400 C 108.517 226.362,106.673 229.322,122.000 220.773 C 141.661 209.805,147.562 206.435,152.800 203.181 C 154.890 201.882,157.230 200.471,158.000 200.044 C 160.322 198.757,166.060 195.165,170.367 192.300 C 172.601 190.815,174.513 189.600,174.617 189.600 C 175.162 189.600,181.746 184.992,184.000 183.034 C 185.430 181.791,188.580 179.090,191.000 177.030 C 193.420 174.971,196.210 172.446,197.200 171.420 C 199.020 169.534,202.131 167.811,203.068 168.171 C 203.884 168.484,204.519 165.344,204.276 162.200 C 204.066 159.477,203.121 156.800,202.371 156.800 C 202.167 156.800,202.000 156.338,202.000 155.774 C 202.000 154.506,201.336 153.202,200.686 153.194 C 199.893 153.184,199.154 152.568,199.045 151.828 C 198.989 151.447,198.759 151.015,198.533 150.868 C 198.308 150.721,197.998 150.090,197.845 149.466 C 197.181 146.753,191.114 145.306,188.881 147.327 C 187.968 148.153,184.980 148.246,184.678 147.458 C 184.223 146.273,173.780 146.277,172.594 147.463 C 172.210 147.847,170.806 148.000,167.655 148.000 C 162.817 148.000,161.401 148.336,161.007 149.577 C 160.786 150.273,160.415 150.400,158.593 150.400 C 156.874 150.400,156.090 150.636,154.705 151.571 C 153.751 152.215,152.467 152.868,151.853 153.023 C 151.238 153.177,150.641 153.550,150.525 153.851 C 150.409 154.153,149.801 154.400,149.173 154.400 C 148.149 154.400,146.400 155.679,146.400 156.427 C 146.400 156.579,145.347 156.780,144.060 156.873 C 142.161 157.010,141.429 157.283,140.169 158.321 C 139.316 159.025,138.411 159.600,138.158 159.600 C 137.905 159.600,137.474 159.870,137.200 160.200 C 136.926 160.530,136.131 160.800,135.432 160.800 C 134.513 160.800,133.891 161.127,133.181 161.983 C 132.642 162.634,131.913 163.174,131.561 163.183 C 131.210 163.192,130.507 163.560,130.000 164.000 C 129.377 164.540,128.503 164.800,127.308 164.800 C 125.875 164.800,125.310 165.028,124.338 166.000 C 123.678 166.660,122.954 167.200,122.729 167.200 C 122.123 167.200,117.200 170.455,117.200 170.856 C 117.200 171.045,116.598 171.200,115.862 171.200 C 114.541 171.200,113.200 172.173,113.200 173.131 C 113.200 173.389,112.772 173.600,112.249 173.600 C 111.726 173.600,111.074 173.870,110.800 174.200 C 110.526 174.530,109.977 174.800,109.580 174.800 C 109.182 174.800,108.574 175.083,108.229 175.429 C 107.657 176.000,107.597 175.573,107.569 170.729 C 107.553 167.798,107.452 165.040,107.346 164.600 C 107.240 164.160,107.174 163.530,107.200 163.200 C 107.355 161.192,107.257 160.283,106.859 160.036 C 106.611 159.883,106.382 158.647,106.352 157.289 C 106.321 155.932,106.051 154.349,105.752 153.773 C 105.453 153.197,105.235 152.051,105.267 151.227 C 105.334 149.528,105.010 148.800,104.187 148.800 C 102.284 148.800,100.928 135.055,102.642 133.148 C 104.531 131.047,117.331 121.956,126.400 116.275 C 128.710 114.828,133.390 111.981,136.800 109.948 C 140.210 107.916,144.260 105.445,145.800 104.459 C 147.340 103.472,151.543 101.158,155.141 99.316 C 158.738 97.474,162.968 95.223,164.541 94.313 C 166.113 93.403,169.020 91.825,171.000 90.806 C 177.206 87.613,181.164 85.160,182.215 83.857 C 184.218 81.375,185.698 80.078,187.335 79.370 C 191.266 77.671,197.219 73.863,198.053 72.514 C 199.582 70.040,201.602 69.047,204.550 69.322 C 207.602 69.607,208.581 68.674,207.694 66.324 C 207.385 65.507,207.359 64.851,207.615 64.373 C 208.307 63.080,208.054 61.218,207.051 60.214 C 206.528 59.692,205.978 58.608,205.827 57.806 C 205.575 56.462,203.178 52.777,202.354 52.467 C 202.159 52.393,202.000 51.743,202.000 51.021 C 202.000 47.598,197.754 45.312,195.273 47.400 C 193.503 48.889,191.200 48.819,191.200 47.276 C 191.200 45.181,188.865 44.098,185.600 44.679 M312.096 82.864 C 311.840 83.120,311.161 83.379,310.586 83.440 C 309.437 83.563,306.724 85.589,304.119 88.270 C 303.087 89.332,302.079 90.000,301.508 90.000 C 300.600 90.000,299.200 91.216,299.200 92.005 C 299.200 92.222,298.853 92.400,298.429 92.400 C 298.004 92.400,297.419 92.627,297.129 92.905 C 296.838 93.182,296.102 93.630,295.494 93.899 C 294.886 94.168,294.182 94.841,293.930 95.394 C 293.678 95.947,293.230 96.400,292.936 96.400 C 292.641 96.400,292.400 96.717,292.400 97.104 C 292.400 97.492,291.860 98.255,291.200 98.800 C 290.540 99.345,290.000 100.033,290.000 100.329 C 290.000 100.625,289.415 101.459,288.700 102.183 C 286.740 104.167,286.000 105.273,286.000 106.217 C 286.000 106.738,285.614 107.248,285.011 107.522 C 284.467 107.770,283.766 108.587,283.452 109.338 C 283.138 110.088,282.683 110.825,282.441 110.975 C 282.198 111.125,282.000 111.687,282.000 112.224 C 282.000 112.928,281.781 113.200,281.214 113.200 C 280.338 113.200,279.600 114.299,279.600 115.604 C 279.600 116.076,279.060 117.002,278.400 117.662 C 277.740 118.322,277.200 119.180,277.200 119.570 C 277.200 119.959,276.840 120.693,276.400 121.200 C 275.960 121.707,275.599 122.590,275.597 123.161 C 275.596 123.895,275.243 124.400,274.397 124.881 C 273.489 125.399,273.200 125.850,273.200 126.753 C 273.200 127.407,272.914 128.229,272.563 128.579 C 272.020 129.123,271.783 129.694,271.631 130.828 C 271.614 130.953,271.060 131.661,270.400 132.400 C 269.578 133.321,269.200 134.162,269.200 135.072 C 269.200 135.918,269.005 136.400,268.662 136.400 C 267.756 136.400,266.800 137.795,266.800 139.117 C 266.800 141.550,264.390 141.491,263.775 139.043 C 263.622 138.434,263.250 137.841,262.949 137.725 C 262.647 137.609,262.400 137.106,262.400 136.607 C 262.400 135.709,259.655 132.400,258.910 132.400 C 258.699 132.400,258.310 131.676,258.045 130.792 C 257.780 129.907,257.211 128.964,256.781 128.696 C 256.170 128.314,256.000 127.758,256.000 126.139 C 256.000 124.332,255.848 123.944,254.800 123.061 C 254.140 122.506,253.600 121.891,253.600 121.696 C 253.600 120.957,251.706 119.600,250.674 119.600 C 250.083 119.600,249.600 119.428,249.600 119.217 C 249.600 118.671,244.159 114.400,243.464 114.400 C 243.146 114.400,242.781 114.128,242.654 113.796 C 242.527 113.464,242.282 113.229,242.111 113.272 C 241.275 113.487,239.210 112.662,239.010 112.033 C 238.764 111.257,237.197 110.400,236.024 110.400 C 235.618 110.400,235.182 110.130,235.055 109.800 C 234.929 109.470,234.389 109.200,233.855 109.200 C 233.322 109.200,232.782 108.930,232.655 108.600 C 232.529 108.270,232.053 108.000,231.598 108.000 C 231.144 108.000,230.291 107.685,229.704 107.300 C 226.585 105.257,215.488 106.548,215.097 109.000 C 215.027 109.440,214.503 110.298,213.933 110.906 C 212.889 112.020,212.400 113.534,212.400 115.650 C 212.400 116.283,212.218 116.800,211.997 116.800 C 208.889 116.800,207.410 123.559,210.034 125.767 C 211.234 126.777,211.790 130.000,210.764 130.000 C 208.614 130.000,208.054 135.316,210.000 137.262 C 210.912 138.174,211.200 138.826,211.200 139.982 C 211.200 140.845,211.459 141.717,211.800 142.000 C 212.130 142.274,212.400 142.804,212.400 143.178 C 212.400 143.641,213.000 144.042,214.271 144.429 C 216.373 145.070,216.864 145.689,220.959 152.866 C 222.257 155.140,223.944 157.963,224.708 159.141 C 225.472 160.318,227.269 163.378,228.702 165.941 C 230.135 168.503,232.348 171.950,233.619 173.600 C 234.891 175.250,237.447 179.030,239.300 182.000 C 241.153 184.970,243.230 188.277,243.916 189.350 C 247.003 194.173,246.737 200.031,243.369 201.439 C 242.616 201.753,242.000 202.278,242.000 202.605 C 242.000 202.932,241.658 203.200,241.239 203.200 C 240.302 203.200,239.600 205.023,239.600 207.460 C 239.600 208.417,239.438 209.200,239.239 209.200 C 238.746 209.200,238.000 211.450,238.000 212.938 C 238.000 213.715,237.611 214.562,236.926 215.278 C 236.054 216.188,235.818 216.871,235.675 218.900 C 235.567 220.441,235.289 221.523,234.950 221.720 C 234.647 221.896,234.400 222.470,234.400 222.996 C 234.400 223.522,234.236 224.054,234.035 224.178 C 233.834 224.303,233.544 225.168,233.391 226.102 C 233.238 227.036,232.828 228.122,232.481 228.515 C 232.103 228.943,231.781 230.229,231.681 231.715 C 231.546 233.708,231.305 234.421,230.463 235.319 C 229.566 236.276,229.392 236.868,229.264 239.406 C 229.168 241.295,228.912 242.541,228.557 242.836 C 228.189 243.141,228.000 244.153,228.000 245.824 C 228.000 248.053,227.863 248.500,226.841 249.619 C 225.553 251.030,225.200 252.279,225.200 255.430 C 225.200 256.797,225.006 257.675,224.658 257.880 C 224.360 258.056,224.013 258.650,223.886 259.200 C 223.759 259.750,223.467 260.920,223.237 261.800 C 223.007 262.680,222.815 264.100,222.810 264.956 C 222.804 265.854,222.549 266.700,222.207 266.956 C 221.649 267.374,221.258 270.175,221.216 274.053 C 221.204 275.160,221.010 275.556,220.405 275.715 C 219.046 276.070,218.800 277.733,218.805 286.526 C 218.812 297.034,219.171 298.000,223.065 298.000 C 224.113 298.000,225.385 299.437,225.979 301.292 C 226.278 302.225,226.852 302.974,227.512 303.292 C 228.244 303.645,228.722 304.338,229.075 305.559 C 229.984 308.704,231.849 309.725,233.438 307.948 C 234.893 306.320,240.429 302.400,241.312 302.372 C 242.772 302.326,243.439 301.893,245.058 299.942 C 245.906 298.920,247.617 297.260,248.859 296.253 C 251.117 294.423,253.368 291.040,254.349 288.000 C 254.598 287.230,255.498 285.681,256.350 284.558 C 257.202 283.435,258.121 281.815,258.392 280.958 C 258.663 280.101,259.738 277.780,260.779 275.800 C 261.821 273.820,263.168 270.940,263.773 269.400 C 264.378 267.860,265.293 265.700,265.806 264.600 C 266.319 263.500,267.494 260.980,268.417 259.000 C 270.658 254.190,272.193 250.502,273.662 246.400 C 276.260 239.145,277.614 239.554,284.260 249.600 C 286.225 252.570,289.214 257.080,290.903 259.623 C 294.929 265.686,298.693 270.051,301.371 271.764 C 302.601 272.551,304.279 274.153,305.258 275.474 C 306.206 276.753,307.734 278.656,308.654 279.703 C 309.574 280.749,310.776 282.372,311.325 283.308 C 312.597 285.479,317.653 290.800,318.443 290.800 C 318.773 290.800,319.887 291.335,320.918 291.989 C 325.298 294.766,326.717 295.100,330.100 294.144 C 331.328 293.797,331.699 292.379,331.802 287.632 C 331.938 281.375,333.217 278.411,336.050 277.789 L 337.200 277.536 337.198 272.668 C 337.196 267.813,337.193 267.797,335.998 266.522 C 334.883 265.332,334.800 265.031,334.800 262.183 C 334.800 260.238,334.586 258.737,334.212 258.062 C 333.888 257.478,333.431 256.235,333.196 255.299 C 332.932 254.249,332.392 253.351,331.784 252.953 C 330.929 252.392,330.800 252.009,330.800 250.025 C 330.800 248.113,330.607 247.488,329.611 246.171 C 328.957 245.307,328.417 244.298,328.411 243.929 C 328.405 243.559,328.160 243.018,327.867 242.725 C 327.575 242.432,327.210 241.694,327.057 241.086 C 326.766 239.926,325.484 238.400,324.800 238.400 C 324.580 238.400,324.400 237.860,324.400 237.200 C 324.400 236.540,324.236 236.000,324.036 236.000 C 323.835 236.000,323.272 235.175,322.784 234.168 C 322.297 233.160,321.662 232.245,321.373 232.134 C 321.085 232.024,320.728 231.363,320.580 230.667 C 320.274 229.228,319.334 228.000,318.538 228.000 C 318.211 228.000,318.000 227.545,318.000 226.843 C 318.000 226.206,317.755 225.592,317.457 225.477 C 317.158 225.362,316.795 224.528,316.650 223.623 C 316.423 222.200,316.225 221.945,315.193 221.739 C 314.165 221.533,314.000 221.322,314.000 220.212 C 314.000 219.401,313.684 218.642,313.145 218.162 C 312.674 217.743,312.042 216.815,311.739 216.100 C 311.437 215.385,311.012 214.800,310.795 214.800 C 310.578 214.800,310.400 214.390,310.400 213.889 C 310.400 212.638,309.318 211.200,308.377 211.200 C 307.783 211.200,307.600 210.922,307.600 210.020 C 307.600 209.371,307.364 208.696,307.075 208.520 C 306.786 208.344,306.376 207.570,306.164 206.800 C 305.933 205.958,305.414 205.241,304.862 205.000 C 304.331 204.768,303.849 204.123,303.716 203.466 C 303.589 202.842,303.258 202.244,302.979 202.137 C 302.700 202.030,302.363 201.505,302.228 200.971 C 302.094 200.437,301.808 200.000,301.592 200.000 C 301.377 200.000,301.200 199.640,301.200 199.200 C 301.200 198.756,300.933 198.400,300.600 198.400 C 300.270 198.400,300.000 198.048,300.000 197.619 C 300.000 196.209,299.087 194.786,298.031 194.550 C 294.405 193.740,294.090 193.575,292.994 191.920 C 291.315 189.382,291.311 187.763,292.969 181.179 C 294.718 174.233,295.824 171.008,297.011 169.393 C 297.499 168.730,298.028 167.380,298.186 166.393 C 298.896 161.977,301.544 154.017,305.769 143.600 C 309.149 135.269,311.771 127.520,312.604 123.400 C 312.961 121.640,313.600 119.056,314.026 117.658 C 314.452 116.260,314.800 114.662,314.800 114.107 C 314.800 113.552,315.526 111.783,316.414 110.175 C 317.302 108.566,318.293 106.359,318.616 105.270 C 319.228 103.210,320.615 101.868,321.908 102.085 C 322.500 102.184,322.640 101.700,322.892 98.688 C 323.053 96.756,323.375 94.821,323.607 94.388 C 323.898 93.843,323.901 93.362,323.614 92.826 C 323.386 92.401,323.200 91.667,323.200 91.196 C 323.200 90.724,322.644 89.783,321.965 89.104 C 321.286 88.424,320.570 87.448,320.375 86.934 C 320.132 86.296,319.700 86.000,319.010 86.000 C 318.203 86.000,318.000 85.802,318.000 85.014 C 318.000 83.961,317.004 83.200,315.626 83.200 C 315.172 83.200,314.800 83.020,314.800 82.800 C 314.800 82.245,312.664 82.296,312.096 82.864 " stroke="none" fill="#eb141c" fill-rule="evenodd"></path><path id="path1" d="M200.334 70.187 C 199.535 70.729,198.505 71.783,198.045 72.528 C 197.220 73.863,191.243 77.681,187.335 79.370 C 185.698 80.078,184.218 81.375,182.215 83.857 C 181.164 85.160,177.206 87.613,171.000 90.806 C 169.020 91.825,166.113 93.403,164.541 94.313 C 162.968 95.223,158.738 97.474,155.141 99.316 C 151.543 101.158,147.340 103.472,145.800 104.459 C 144.260 105.445,140.210 107.916,136.800 109.948 C 123.859 117.662,116.675 122.381,108.000 128.866 C 101.341 133.845,101.847 132.880,102.091 140.115 C 102.303 146.420,102.877 148.800,104.187 148.800 C 105.010 148.800,105.334 149.528,105.267 151.227 C 105.235 152.051,105.484 153.237,105.821 153.863 C 106.431 154.997,106.433 154.994,106.382 152.800 C 106.300 149.215,106.364 148.800,107.000 148.800 C 107.330 148.800,107.600 148.530,107.600 148.200 C 107.600 147.862,107.958 147.600,108.419 147.600 C 108.909 147.600,109.510 147.120,109.919 146.403 C 110.293 145.744,110.878 145.204,111.219 145.203 C 111.882 145.200,112.818 144.564,115.198 142.500 C 116.022 141.785,116.983 141.200,117.333 141.200 C 117.683 141.200,118.291 140.866,118.684 140.458 C 119.078 140.049,120.300 139.104,121.400 138.356 C 122.500 137.608,124.030 136.523,124.800 135.945 C 125.570 135.366,126.605 134.770,127.100 134.619 C 127.595 134.469,128.000 134.192,128.000 134.004 C 128.000 133.816,128.622 133.457,129.382 133.206 C 130.142 132.955,131.177 132.314,131.682 131.782 C 132.187 131.249,132.839 130.811,133.131 130.807 C 133.423 130.803,134.202 130.260,134.862 129.600 C 135.522 128.940,136.386 128.400,136.782 128.400 C 137.178 128.400,137.717 128.142,137.979 127.826 C 138.241 127.510,138.978 127.137,139.617 126.996 C 140.256 126.856,141.222 126.214,141.763 125.571 C 142.305 124.927,143.126 124.400,143.587 124.400 C 144.048 124.400,144.522 124.146,144.641 123.836 C 144.761 123.526,145.334 123.153,145.916 123.007 C 146.498 122.861,147.691 122.214,148.566 121.571 C 149.441 120.927,150.356 120.400,150.598 120.400 C 150.840 120.400,151.479 119.868,152.019 119.217 C 152.640 118.467,153.387 118.028,154.057 118.017 C 154.639 118.008,155.208 117.755,155.323 117.457 C 155.438 117.158,156.277 116.794,157.189 116.648 C 158.465 116.444,159.003 116.109,159.523 115.194 C 160.078 114.219,160.461 114.005,161.651 114.003 C 162.487 114.001,163.326 113.730,163.630 113.364 C 163.920 113.014,165.022 112.350,166.079 111.889 C 167.136 111.428,168.000 110.918,168.000 110.757 C 168.000 110.596,168.495 110.350,169.100 110.212 C 170.350 109.926,172.000 108.688,172.000 108.036 C 172.000 107.796,172.698 107.600,173.551 107.600 C 174.404 107.600,175.311 107.348,175.567 107.039 C 175.823 106.731,176.511 106.359,177.095 106.212 C 177.679 106.065,178.758 105.418,179.492 104.773 C 180.227 104.128,181.083 103.600,181.394 103.600 C 181.705 103.600,182.104 103.375,182.280 103.100 C 182.666 102.496,183.838 101.732,185.221 101.183 C 186.294 100.756,187.600 98.920,187.600 97.838 C 187.600 97.487,187.870 97.200,188.200 97.200 C 188.530 97.200,188.800 96.930,188.800 96.600 C 188.800 96.193,189.219 95.994,190.100 95.983 C 190.815 95.973,192.120 95.524,193.000 94.985 C 193.880 94.446,195.048 93.779,195.595 93.503 C 196.780 92.903,198.000 91.748,198.000 91.224 C 198.000 91.017,198.669 90.792,199.487 90.724 C 200.646 90.627,201.110 90.348,201.587 89.461 C 202.264 88.203,204.697 85.600,205.197 85.600 C 205.372 85.600,205.618 85.330,205.745 85.000 C 205.871 84.670,206.435 84.400,206.997 84.400 C 207.815 84.400,208.068 84.158,208.262 83.192 C 208.395 82.527,208.660 81.886,208.852 81.768 C 209.332 81.471,209.291 79.304,208.800 79.000 C 208.580 78.864,208.400 77.306,208.400 75.537 C 208.400 69.528,204.809 67.146,200.334 70.187 M319.894 102.948 C 319.342 103.459,318.762 104.491,318.606 105.239 C 318.449 105.988,317.529 108.068,316.560 109.862 C 315.592 111.655,314.800 113.571,314.800 114.119 C 314.800 114.667,314.452 116.260,314.026 117.658 C 313.600 119.056,312.961 121.640,312.604 123.400 C 311.771 127.520,309.149 135.269,305.769 143.600 C 301.544 154.017,298.896 161.977,298.186 166.393 C 298.028 167.380,297.499 168.730,297.011 169.393 C 295.165 171.904,291.366 185.643,291.699 188.600 C 291.968 190.986,293.760 193.496,295.550 193.993 C 297.499 194.534,297.600 194.517,297.600 193.643 C 297.600 193.226,297.842 192.793,298.137 192.680 C 299.035 192.335,299.999 189.793,300.011 187.740 C 300.020 186.125,300.221 185.605,301.211 184.633 C 301.865 183.992,302.400 183.220,302.400 182.919 C 302.400 182.618,302.655 181.973,302.966 181.486 C 303.277 180.999,303.659 179.025,303.813 177.100 C 304.026 174.459,304.235 173.600,304.668 173.600 C 305.479 173.600,306.400 171.155,306.400 169.000 C 306.400 167.747,306.588 167.103,307.000 166.945 C 307.409 166.788,307.600 166.148,307.600 164.935 C 307.600 163.453,307.809 162.964,308.845 162.018 C 309.809 161.137,310.138 160.444,310.307 158.941 C 310.427 157.873,310.752 156.820,311.029 156.600 C 311.544 156.191,312.800 152.807,312.800 151.829 C 312.800 151.530,313.070 151.182,313.400 151.055 C 313.831 150.890,314.000 150.215,314.000 148.659 C 314.000 146.801,314.140 146.401,314.980 145.850 C 316.131 145.096,316.795 143.014,316.798 140.149 C 316.799 138.816,317.010 137.924,317.400 137.600 C 317.840 137.234,318.000 136.264,318.000 133.951 C 318.000 132.218,318.162 130.800,318.360 130.800 C 318.894 130.800,320.238 128.011,320.501 126.358 C 320.628 125.565,321.183 124.427,321.737 123.831 C 322.509 122.997,322.808 122.126,323.024 120.073 C 323.180 118.603,323.553 117.045,323.853 116.611 C 324.991 114.969,324.554 102.800,323.357 102.800 C 323.051 102.800,322.800 102.659,322.800 102.487 C 322.800 101.770,320.827 102.083,319.894 102.948 M211.849 144.608 C 210.951 145.506,210.911 151.003,211.800 151.345 C 212.170 151.487,212.400 152.094,212.400 152.928 C 212.400 154.953,213.160 156.800,213.994 156.800 C 214.533 156.800,214.774 157.234,214.973 158.560 C 215.238 160.324,216.297 162.000,217.147 162.000 C 217.396 162.000,217.600 162.506,217.600 163.124 C 217.600 163.741,217.864 164.596,218.187 165.024 C 218.510 165.451,218.780 166.098,218.787 166.462 C 218.794 166.826,219.430 167.878,220.200 168.800 C 220.970 169.722,221.600 170.819,221.600 171.238 C 221.600 171.657,221.847 172.000,222.150 172.000 C 222.453 172.000,222.800 172.500,222.922 173.112 C 223.045 173.723,223.584 174.697,224.120 175.276 C 224.656 175.855,225.223 176.839,225.379 177.464 C 225.712 178.797,226.700 180.000,227.462 180.000 C 227.793 180.000,228.000 180.461,228.000 181.200 C 228.000 182.000,228.200 182.400,228.600 182.400 C 229.017 182.400,229.200 182.819,229.200 183.771 C 229.200 185.195,230.039 186.400,231.029 186.400 C 231.343 186.400,231.600 186.731,231.600 187.137 C 231.600 187.885,232.516 189.167,234.500 191.196 C 235.105 191.815,235.600 192.692,235.600 193.145 C 235.600 193.919,237.000 195.600,237.644 195.600 C 237.805 195.600,238.052 196.128,238.194 196.772 C 238.336 197.417,238.710 198.159,239.026 198.421 C 239.342 198.683,239.600 199.205,239.600 199.579 C 239.600 201.917,243.140 202.456,244.999 200.401 C 246.508 198.734,246.213 193.140,244.464 190.251 C 240.669 183.981,235.505 176.055,233.616 173.600 C 232.347 171.950,230.135 168.503,228.702 165.941 C 227.269 163.378,225.473 160.318,224.710 159.141 C 223.947 157.963,222.231 155.110,220.896 152.800 C 216.229 144.722,216.241 144.737,213.749 144.218 C 212.860 144.033,212.311 144.146,211.849 144.608 M36.565 147.601 C 34.862 147.975,34.591 148.190,33.849 149.754 C 33.038 151.463,33.015 154.636,33.802 156.146 C 34.131 156.776,34.400 157.622,34.400 158.026 C 34.400 158.430,34.629 158.904,34.908 159.080 C 35.188 159.256,35.632 159.890,35.895 160.489 C 36.164 161.103,36.815 161.689,37.386 161.832 C 37.944 161.972,38.400 162.315,38.400 162.594 C 38.400 162.874,38.673 163.329,39.007 163.606 C 39.341 163.883,39.901 164.713,40.250 165.449 C 40.890 166.797,42.980 168.400,44.098 168.400 C 44.430 168.400,44.947 168.695,45.245 169.055 C 45.544 169.415,46.536 170.030,47.450 170.422 C 48.364 170.813,49.232 171.329,49.380 171.567 C 49.527 171.805,49.965 172.000,50.352 172.000 C 50.740 172.000,51.765 172.535,52.629 173.189 C 57.657 176.993,61.134 172.855,60.655 163.640 C 60.281 156.456,59.684 155.494,56.203 156.466 C 53.557 157.204,50.426 156.488,49.861 155.014 C 49.731 154.676,47.954 153.580,45.912 152.579 C 43.871 151.577,41.732 150.247,41.161 149.621 C 39.674 147.994,38.041 147.276,36.565 147.601 M106.400 158.320 C 106.400 159.244,106.567 160.000,106.771 160.000 C 106.975 160.000,107.238 160.315,107.356 160.700 C 107.474 161.085,107.508 160.529,107.431 159.465 C 107.245 156.910,106.400 155.970,106.400 158.320 M107.080 162.936 C 106.967 163.231,107.035 163.726,107.231 164.036 C 107.491 164.447,107.589 164.301,107.594 163.500 C 107.601 162.306,107.404 162.090,107.080 162.936 M200.659 168.783 C 199.811 169.179,197.831 170.751,196.259 172.278 C 194.686 173.805,191.812 176.392,189.871 178.027 C 187.929 179.662,185.229 181.966,183.871 183.146 C 181.715 185.019,175.147 189.600,174.617 189.600 C 174.513 189.600,172.601 190.815,170.367 192.300 C 166.060 195.165,160.322 198.757,158.000 200.044 C 157.230 200.471,154.890 201.882,152.800 203.181 C 147.562 206.435,141.661 209.805,122.000 220.773 C 106.673 229.322,108.517 226.362,107.285 244.400 C 107.018 248.317,106.967 258.049,107.161 268.000 C 107.244 272.204,108.773 272.706,110.897 269.225 C 111.375 268.441,111.907 267.740,112.080 267.668 C 112.252 267.595,112.204 267.182,111.973 266.749 C 111.540 265.941,111.621 262.378,112.331 250.946 C 112.722 244.655,113.218 243.200,114.971 243.200 C 115.286 243.200,115.781 242.966,116.071 242.679 C 116.362 242.393,117.455 241.747,118.500 241.244 C 119.545 240.740,120.400 240.075,120.400 239.764 C 120.400 239.388,120.858 239.200,121.771 239.200 C 123.195 239.200,124.400 238.361,124.400 237.371 C 124.400 236.987,124.850 236.800,125.771 236.800 C 126.526 236.800,127.404 236.539,127.723 236.220 C 128.042 235.901,128.761 235.525,129.321 235.384 C 129.880 235.244,130.847 234.610,131.469 233.976 C 132.091 233.341,133.011 232.817,133.513 232.811 C 134.014 232.805,134.524 232.541,134.646 232.224 C 134.767 231.908,135.378 231.537,136.002 231.400 C 136.626 231.262,137.627 230.696,138.226 230.141 C 138.825 229.585,139.933 229.031,140.688 228.908 C 141.568 228.765,142.364 228.275,142.906 227.543 C 143.398 226.877,144.125 226.400,144.647 226.400 C 145.140 226.400,145.813 226.130,146.143 225.800 C 146.473 225.470,146.880 225.200,147.047 225.200 C 147.664 225.200,149.995 223.383,149.997 222.900 C 149.999 222.600,150.536 222.400,151.338 222.400 C 152.659 222.400,154.000 221.427,154.000 220.469 C 154.000 220.211,154.453 220.000,155.006 220.000 C 156.232 220.000,160.286 217.771,160.928 216.744 C 161.183 216.335,161.801 216.000,162.300 216.000 C 162.799 216.000,163.516 215.640,163.893 215.200 C 164.270 214.760,164.827 214.400,165.131 214.400 C 165.436 214.400,166.341 213.905,167.144 213.300 C 167.947 212.695,168.962 212.005,169.402 211.767 C 169.841 211.529,170.378 210.944,170.595 210.467 C 170.843 209.923,171.353 209.600,171.963 209.600 C 172.499 209.600,173.221 209.353,173.569 209.052 C 173.916 208.751,174.740 208.334,175.400 208.126 C 176.060 207.918,176.775 207.360,176.990 206.886 C 177.204 206.412,177.878 205.915,178.487 205.781 C 179.097 205.647,179.731 205.325,179.898 205.065 C 180.064 204.805,180.920 204.234,181.800 203.796 C 182.680 203.358,183.506 202.857,183.635 202.681 C 183.764 202.506,184.484 202.056,185.235 201.681 C 185.986 201.307,186.778 200.595,186.995 200.100 C 187.212 199.605,187.577 199.200,187.806 199.200 C 188.035 199.200,188.506 198.885,188.853 198.500 C 189.200 198.115,190.230 197.131,191.142 196.312 C 192.054 195.494,192.800 194.729,192.800 194.612 C 192.800 194.166,194.426 192.800,194.957 192.800 C 195.264 192.800,195.618 192.530,195.745 192.200 C 195.871 191.870,196.270 191.600,196.631 191.600 C 197.388 191.600,199.183 190.019,199.193 189.343 C 199.197 189.092,199.650 188.774,200.200 188.636 C 200.750 188.498,201.200 188.236,201.200 188.055 C 201.200 187.566,204.503 182.675,205.200 182.132 C 206.080 181.447,206.073 172.547,205.192 171.868 C 204.858 171.611,204.246 170.635,203.832 169.700 C 202.993 167.806,202.845 167.764,200.659 168.783 M107.632 174.716 C 107.605 175.820,107.689 175.949,108.156 175.516 C 108.461 175.232,108.578 174.910,108.416 174.800 C 108.253 174.690,108.017 174.330,107.892 174.000 C 107.766 173.670,107.649 173.992,107.632 174.716 M48.667 234.667 C 48.520 234.813,48.400 235.490,48.400 236.170 C 48.400 236.965,48.120 237.582,47.617 237.896 C 46.605 238.529,45.874 241.272,46.202 243.213 C 46.449 244.676,49.764 248.400,50.819 248.400 C 51.028 248.400,51.200 248.670,51.200 249.000 C 51.200 249.330,51.538 249.600,51.951 249.600 C 52.364 249.600,52.926 249.870,53.200 250.200 C 53.474 250.530,53.946 250.800,54.249 250.800 C 54.590 250.800,54.800 251.241,54.800 251.960 C 54.800 253.282,57.115 254.800,59.132 254.800 C 59.742 254.800,60.411 254.960,60.620 255.155 C 61.771 256.230,62.800 256.069,62.800 254.814 C 62.800 254.117,63.047 253.480,63.364 253.359 C 64.235 253.024,64.504 251.372,64.431 246.800 C 64.315 239.488,63.647 238.382,59.099 237.965 C 56.386 237.716,56.187 237.627,54.827 236.046 C 53.434 234.427,49.735 233.599,48.667 234.667 M275.502 242.300 C 275.159 242.685,274.332 244.530,273.662 246.400 C 272.193 250.502,270.658 254.190,268.417 259.000 C 267.494 260.980,266.319 263.500,265.806 264.600 C 265.293 265.700,264.378 267.860,263.773 269.400 C 263.168 270.940,261.821 273.820,260.779 275.800 C 259.738 277.780,258.663 280.101,258.392 280.958 C 258.121 281.815,257.202 283.435,256.350 284.558 C 255.498 285.681,254.598 287.230,254.349 288.000 C 253.368 291.040,251.117 294.423,248.859 296.253 C 247.617 297.260,245.906 298.920,245.058 299.942 C 243.439 301.893,242.772 302.326,241.312 302.372 C 240.429 302.400,234.893 306.320,233.438 307.948 C 231.849 309.725,229.984 308.704,229.075 305.559 C 228.722 304.338,228.244 303.645,227.512 303.292 C 226.852 302.974,226.278 302.225,225.979 301.292 C 225.316 299.221,224.181 298.109,222.535 297.916 L 221.134 297.753 221.267 304.309 C 221.373 309.543,221.521 310.962,222.000 311.342 C 222.330 311.604,222.795 312.174,223.033 312.609 C 223.271 313.044,223.856 313.578,224.333 313.795 C 225.084 314.137,225.200 314.515,225.200 316.618 C 225.200 319.191,225.693 320.246,227.000 320.470 C 227.569 320.567,227.836 320.973,227.923 321.873 C 227.991 322.570,228.306 323.356,228.623 323.619 C 228.940 323.883,229.200 324.315,229.200 324.579 C 229.200 325.649,231.034 326.800,232.740 326.800 C 234.544 326.800,236.400 325.864,236.400 324.954 C 236.400 324.649,236.630 324.400,236.911 324.400 C 237.192 324.400,237.934 323.815,238.559 323.100 C 240.434 320.958,241.570 320.406,244.109 320.403 C 246.240 320.400,246.455 320.316,246.909 319.300 C 247.179 318.695,247.895 317.779,248.500 317.264 C 249.234 316.640,249.600 315.941,249.600 315.164 C 249.600 314.431,249.808 314.000,250.162 314.000 C 250.471 314.000,251.440 313.415,252.315 312.700 C 253.191 311.985,254.378 311.060,254.953 310.644 C 255.644 310.145,256.000 309.515,256.000 308.791 C 256.000 308.078,256.248 307.629,256.708 307.508 C 257.157 307.391,257.683 306.474,258.151 304.990 C 258.555 303.707,259.137 302.406,259.443 302.100 C 259.749 301.794,260.000 301.196,260.000 300.771 C 260.000 300.347,260.146 300.000,260.325 300.000 C 261.145 300.000,262.400 298.281,262.400 297.156 C 262.400 296.489,262.670 295.673,263.000 295.343 C 263.330 295.013,263.713 294.031,263.853 293.161 C 264.031 292.049,264.446 291.337,265.253 290.762 C 266.129 290.139,266.400 289.625,266.400 288.593 C 266.400 287.849,266.636 287.096,266.924 286.920 C 267.914 286.316,268.800 284.621,268.800 283.331 C 268.800 282.587,269.060 281.894,269.413 281.697 C 269.750 281.508,270.138 280.644,270.275 279.777 C 270.424 278.835,270.982 277.727,271.662 277.024 C 272.496 276.162,272.800 275.452,272.800 274.367 C 272.800 273.419,273.016 272.803,273.400 272.655 C 273.730 272.529,274.000 272.070,274.000 271.635 C 274.000 270.828,275.366 268.222,276.288 267.271 C 276.569 266.981,276.800 266.017,276.800 265.129 C 276.800 263.893,277.029 263.335,277.779 262.745 C 278.352 262.294,278.915 261.276,279.136 260.288 C 279.344 259.359,279.534 258.985,279.557 259.455 C 279.581 259.925,280.138 260.735,280.796 261.255 C 281.454 261.775,281.994 262.515,281.996 262.900 C 281.998 263.285,282.248 263.600,282.550 263.600 C 282.853 263.600,283.215 264.173,283.355 264.874 C 283.640 266.299,284.646 267.600,285.462 267.600 C 285.793 267.600,286.000 268.061,286.000 268.800 C 286.000 269.460,286.179 270.000,286.398 270.000 C 286.617 270.000,287.179 270.816,287.648 271.813 C 288.117 272.810,288.838 273.806,289.250 274.027 C 289.663 274.248,290.000 274.748,290.000 275.139 C 290.000 275.530,290.540 276.249,291.200 276.737 C 291.860 277.225,292.400 277.880,292.400 278.192 C 292.400 279.008,294.719 282.329,295.629 282.816 C 296.053 283.043,296.400 283.492,296.400 283.814 C 296.400 284.136,296.580 284.400,296.800 284.400 C 297.259 284.400,298.800 285.856,298.800 286.290 C 298.800 286.886,301.840 289.264,302.868 289.471 C 303.550 289.609,304.019 290.021,304.167 290.613 C 304.295 291.122,304.940 292.078,305.600 292.738 C 306.260 293.398,306.800 294.132,306.800 294.369 C 306.800 294.606,306.980 294.800,307.200 294.800 C 307.696 294.800,309.200 296.271,309.200 296.757 C 309.200 296.954,309.470 297.218,309.800 297.345 C 310.148 297.478,310.400 298.077,310.400 298.772 C 310.400 299.430,310.683 300.201,311.030 300.484 C 313.223 302.280,315.544 304.732,315.779 305.500 C 315.930 305.995,316.293 306.400,316.584 306.400 C 316.876 306.400,317.218 306.670,317.345 307.000 C 317.487 307.372,318.096 307.600,318.947 307.600 C 319.983 307.600,320.664 307.944,321.720 309.000 C 322.582 309.862,323.509 310.400,324.131 310.400 C 324.688 310.400,325.381 310.627,325.671 310.905 C 326.711 311.897,328.407 312.425,329.197 312.002 C 329.610 311.781,330.544 311.598,331.274 311.595 C 333.471 311.585,334.328 311.183,334.754 309.960 C 334.976 309.322,335.319 308.800,335.516 308.800 C 336.663 308.800,337.174 306.082,337.313 299.257 C 337.435 293.259,337.545 292.262,338.127 291.937 C 339.024 291.435,339.115 284.228,338.240 282.978 C 337.932 282.539,337.549 281.135,337.390 279.859 C 337.108 277.602,337.071 277.546,336.050 277.800 C 333.156 278.522,331.936 281.337,331.801 287.601 C 331.699 292.377,331.330 293.796,330.100 294.144 C 326.717 295.100,325.298 294.766,320.918 291.989 C 319.887 291.335,318.773 290.800,318.443 290.800 C 317.653 290.800,312.597 285.479,311.325 283.308 C 310.776 282.372,309.574 280.749,308.654 279.703 C 307.734 278.656,306.206 276.753,305.258 275.474 C 304.279 274.153,302.601 272.551,301.371 271.764 C 298.693 270.051,294.929 265.686,290.903 259.623 C 289.214 257.080,286.225 252.570,284.260 249.600 C 279.005 241.657,277.321 240.253,275.502 242.300 M220.046 245.846 C 220.004 246.982,219.760 247.204,217.300 248.339 C 212.967 250.338,206.396 254.090,203.800 256.048 C 202.480 257.043,200.050 258.545,198.400 259.385 C 196.750 260.225,193.198 262.244,190.507 263.871 C 187.816 265.499,184.486 267.255,183.107 267.775 C 180.839 268.628,177.902 270.312,175.200 272.307 C 174.650 272.713,173.183 273.535,171.939 274.133 C 170.696 274.731,169.399 275.648,169.057 276.170 C 168.149 277.555,162.628 281.121,160.891 281.445 C 159.401 281.722,156.700 283.190,156.205 283.993 C 156.060 284.227,154.683 285.040,153.145 285.800 C 149.915 287.396,148.358 288.414,146.400 290.209 C 145.630 290.915,144.240 291.676,143.311 291.901 C 141.562 292.324,137.179 294.920,131.490 298.903 C 129.680 300.170,127.523 301.393,126.695 301.620 C 125.605 301.919,124.790 302.570,123.736 303.982 C 122.224 306.008,119.733 307.365,115.600 308.416 C 113.325 308.994,109.521 310.994,108.946 311.914 C 108.525 312.589,106.292 323.483,105.810 327.217 C 105.502 329.610,104.066 331.200,102.215 331.200 C 100.808 331.200,100.143 331.646,95.149 335.941 C 92.990 337.799,92.497 338.051,91.430 337.846 C 83.263 336.280,78.851 332.643,77.204 326.121 C 76.611 323.769,75.248 322.800,72.536 322.800 C 70.459 322.800,70.287 322.714,67.849 320.446 C 63.917 316.788,59.089 315.708,57.230 318.071 C 54.755 321.217,56.515 330.800,59.568 330.800 C 60.767 330.800,61.160 330.995,61.509 331.760 C 61.773 332.339,62.553 332.917,63.473 333.217 C 64.313 333.490,65.144 333.958,65.320 334.257 C 65.496 334.555,65.901 334.800,66.220 334.800 C 66.542 334.800,66.800 335.173,66.800 335.640 C 66.800 337.633,71.283 339.951,74.218 339.475 C 75.344 339.292,75.600 339.377,75.600 339.936 C 75.600 340.313,75.844 340.977,76.143 341.411 C 76.442 341.845,76.817 342.914,76.978 343.786 C 77.362 345.881,78.278 347.600,79.010 347.600 C 79.335 347.600,79.600 347.870,79.600 348.200 C 79.600 348.530,79.861 348.800,80.180 348.800 C 80.498 348.800,81.240 349.430,81.827 350.200 C 82.414 350.970,83.200 351.600,83.572 351.600 C 83.945 351.600,84.649 352.140,85.137 352.800 C 85.951 353.901,86.221 354.000,88.425 354.000 C 90.189 354.000,90.886 354.159,91.055 354.600 C 91.473 355.689,95.664 355.409,96.784 354.217 C 97.291 353.677,98.448 352.733,99.353 352.119 C 100.259 351.505,101.090 350.893,101.200 350.760 C 101.575 350.307,104.197 349.271,105.600 349.022 C 106.479 348.866,107.588 348.187,108.581 347.195 L 110.162 345.616 110.325 341.708 C 110.424 339.319,110.688 337.567,111.003 337.200 C 111.286 336.870,111.618 335.790,111.740 334.800 C 111.965 332.982,112.265 330.864,112.629 328.522 C 112.811 327.356,112.985 327.221,114.638 326.973 C 115.988 326.771,116.665 326.409,117.300 325.551 C 118.049 324.538,118.401 324.400,120.247 324.400 C 121.545 324.400,122.564 324.179,122.923 323.820 C 123.242 323.501,123.960 323.125,124.519 322.985 C 125.077 322.845,125.824 322.431,126.179 322.065 C 127.666 320.533,128.400 319.433,128.400 318.739 C 128.400 318.138,128.713 318.000,130.075 318.000 C 132.179 318.000,134.349 316.630,134.670 315.100 C 134.865 314.169,135.103 314.000,136.219 314.000 C 137.152 314.000,137.890 313.648,138.738 312.800 C 139.398 312.140,140.222 311.600,140.569 311.600 C 140.916 311.600,141.200 311.353,141.200 311.051 C 141.200 310.721,141.831 310.401,142.781 310.249 C 143.651 310.110,144.506 309.757,144.681 309.464 C 144.856 309.172,145.945 308.597,147.100 308.187 C 148.255 307.777,149.200 307.302,149.200 307.131 C 149.200 306.960,149.695 306.556,150.300 306.234 C 150.905 305.911,151.923 305.186,152.562 304.623 C 153.201 304.061,153.957 303.600,154.242 303.600 C 154.527 303.600,154.904 303.375,155.080 303.100 C 155.256 302.825,156.120 302.265,157.000 301.856 C 157.880 301.447,158.870 300.948,159.200 300.748 C 159.530 300.548,160.344 300.132,161.008 299.825 C 161.673 299.518,162.534 298.915,162.923 298.485 C 163.325 298.041,164.408 297.598,165.435 297.457 C 167.296 297.202,167.510 297.053,171.762 293.033 C 173.612 291.283,174.399 290.800,175.398 290.800 C 176.355 290.800,177.136 290.363,178.531 289.045 C 179.553 288.079,180.842 287.176,181.395 287.037 C 181.948 286.898,182.400 286.518,182.400 286.192 C 182.400 285.867,182.726 285.600,183.124 285.600 C 183.521 285.600,184.196 285.336,184.624 285.013 C 185.051 284.690,185.873 284.420,186.451 284.413 C 187.029 284.406,187.726 284.130,188.000 283.800 C 188.274 283.470,188.830 283.200,189.235 283.200 C 189.640 283.200,190.573 282.672,191.308 282.027 C 192.042 281.382,193.143 280.729,193.754 280.576 C 194.365 280.422,194.959 280.050,195.075 279.749 C 195.191 279.447,195.710 279.200,196.229 279.200 C 196.748 279.200,197.725 278.660,198.400 278.000 C 199.075 277.340,199.981 276.800,200.413 276.800 C 200.844 276.800,201.895 276.170,202.747 275.400 C 203.600 274.630,204.590 274.000,204.948 274.000 C 205.307 274.000,205.600 273.730,205.600 273.400 C 205.600 273.011,205.990 272.800,206.711 272.800 C 207.440 272.800,208.177 272.395,208.856 271.621 C 209.425 270.973,210.365 270.324,210.945 270.178 C 211.525 270.032,212.000 269.767,212.000 269.588 C 212.000 269.410,212.552 269.142,213.227 268.994 C 213.902 268.846,214.551 268.472,214.670 268.162 C 214.788 267.853,215.136 267.600,215.443 267.600 C 215.749 267.600,216.000 267.330,216.000 267.000 C 216.000 266.579,216.424 266.400,217.419 266.400 C 218.574 266.400,218.963 266.179,219.519 265.206 C 219.893 264.549,220.695 263.839,221.300 263.627 L 222.400 263.242 222.400 257.821 C 222.400 252.667,222.439 252.400,223.200 252.400 C 224.982 252.400,224.295 248.717,222.220 247.147 C 221.241 246.406,220.362 245.530,220.266 245.200 C 220.171 244.870,220.072 245.161,220.046 245.846 M307.862 332.331 C 306.455 333.886,307.584 337.230,309.500 337.183 C 310.932 337.147,313.395 335.376,313.525 334.288 C 313.757 332.331,309.266 330.780,307.862 332.331 M334.643 333.153 C 333.770 334.117,334.150 335.818,335.424 336.653 C 336.910 337.626,340.000 336.130,340.000 334.437 C 340.000 332.405,336.154 331.483,334.643 333.153 M332.667 347.067 C 332.211 347.522,332.374 350.614,332.880 351.120 C 334.375 352.615,338.000 351.124,338.000 349.014 C 338.000 347.400,333.849 345.885,332.667 347.067 M354.000 353.000 C 354.000 354.281,354.108 354.440,354.900 354.328 C 355.605 354.228,355.800 353.940,355.800 353.000 C 355.800 352.060,355.605 351.772,354.900 351.672 C 354.108 351.560,354.000 351.719,354.000 353.000 " stroke="none" fill="#060404" fill-rule="evenodd"></path></g></svg>